HIERARCHY
ROOT Hips
{
 OFFSET 0.000000 0.000000 0.000000
 CHANNELS 6 Xposition Yposition Zposition Yrotation Xrotation Zrotation
 JOINT Chest
 {
  OFFSET 0.000000 9.588913 -0.003946
  CHANNELS 3 Yrotation Xrotation Zrotation
  JOINT Chest2
  {
   OFFSET 0.000000 9.541882 0.008053
   CHANNELS 3 Yrotation Xrotation Zrotation
   JOINT Chest3
   {
    OFFSET 0.000000 9.501360 0.000000
    CHANNELS 3 Yrotation Xrotation Zrotation
    JOINT Chest4
    {
     OFFSET 0.000000 9.491660 0.000000
     CHANNELS 3 Yrotation Xrotation Zrotation
     JOINT Neck
     {
      OFFSET 0.000000 14.331917 0.000000
      CHANNELS 3 Yrotation Xrotation Zrotation
      JOINT Head
      {
       OFFSET 0.000000 8.884799 0.017034
       CHANNELS 3 Yrotation Xrotation Zrotation
       End Site
       {
        OFFSET 0.000000 16.896195 0.008993
       }
      }
     }
     JOINT RightCollar
     {
      OFFSET -2.923010 9.499495 0.000000
      CHANNELS 3 Yrotation Xrotation Zrotation
      JOINT RightShoulder
      {
       OFFSET -13.795216 0.000000 0.000000
       CHANNELS 3 Yrotation Xrotation Zrotation
       JOINT RightElbow
       {
        OFFSET -30.272209 0.000000 0.000000
        CHANNELS 3 Yrotation Xrotation Zrotation
        JOINT RightWrist
        {
         OFFSET -24.478199 0.000000 0.000000
         CHANNELS 3 Yrotation Xrotation Zrotation
         End Site
         {
          OFFSET -18.090752 0.000000 0.000000
         }
        }
       }
      }
     }
     JOINT LeftCollar
     {
      OFFSET 2.923010 9.499495 0.000000
      CHANNELS 3 Yrotation Xrotation Zrotation
      JOINT LeftShoulder
      {
       OFFSET 13.795216 0.000000 0.000000
       CHANNELS 3 Yrotation Xrotation Zrotation
       JOINT LeftElbow
       {
        OFFSET 30.272209 0.000000 0.000000
        CHANNELS 3 Yrotation Xrotation Zrotation
        JOINT LeftWrist
        {
         OFFSET 24.478199 0.000000 0.000000
         CHANNELS 3 Yrotation Xrotation Zrotation
         End Site
         {
          OFFSET 18.090752 0.000000 0.000000
         }
        }
       }
      }
     }
    }
   }
  }
 }
 JOINT RightHip
 {
  OFFSET -7.826875 0.019532 0.001973
  CHANNELS 3 Yrotation Xrotation Zrotation
  JOINT RightKnee
  {
   OFFSET 0.000000 -40.546152 -0.001885
   CHANNELS 3 Yrotation Xrotation Zrotation
   JOINT RightAnkle
   {
    OFFSET 0.000000 -39.417092 -0.003189
    CHANNELS 3 Yrotation Xrotation Zrotation
    JOINT RightToe
    {
     OFFSET 0.000000 -7.579396 17.243563
     CHANNELS 3 Yrotation Xrotation Zrotation
     End Site
     {
      OFFSET 0.000000 -1.500329 6.694466
     }
    }
   }
  }
 }
 JOINT LeftHip
 {
  OFFSET 7.826875 0.019532 0.001973
  CHANNELS 3 Yrotation Xrotation Zrotation
  JOINT LeftKnee
  {
   OFFSET 0.000000 -40.546152 -0.001885
   CHANNELS 3 Yrotation Xrotation Zrotation
   JOINT LeftAnkle
   {
    OFFSET 0.000000 -39.417092 -0.003189
    CHANNELS 3 Yrotation Xrotation Zrotation
    JOINT LeftToe
    {
     OFFSET 0.000000 -7.579396 17.243563
     CHANNELS 3 Yrotation Xrotation Zrotation
     End Site
     {
      OFFSET 0.000000 -1.500329 6.694466
     }
    }
   }
  }
 }
}
MOTION
Frames: 11
Frame Time: 0.008333
0.000000 87.345680 0.000000 0.000000 -5.767889 0.000000 0.000000 11.653876 0.000000 0.000000 -5.885988 0.000000 0.000000 -0.000000 0.000000 0.000000 -0.000000 0.000000 0.000000 12.528808 0.000000 0.000000 0.711711 0.000000 0.000000 -0.000000 0.000000 0.000000 -0.000000 0.000000 2.309063 -0.000000 0.000000 -2.309063 -0.000000 -0.000000 0.000000 -0.000000 0.000000 0.000000 0.000000 0.000000 -2.309063 0.000000 0.000000 2.309063 -0.000000 0.000000 0.000000 8.520374 0.000000 0.000000 1.905768 0.000000 -0.000000 -4.658254 0.000000 0.000000 -0.000000 0.000000 0.000000 8.520374 0.000000 0.000000 1.905768 0.000000 -0.000000 -4.658254 0.000000 0.000000 -0.000000 0.000000
14.110758 89.135193 -10.525811 145.036868 -6.233783 -0.042460 -1.867355 3.022503 -0.301339 -1.068036 1.730943 -0.155405 -1.335931 2.163202 -0.199322 -1.068036 1.730943 -0.155405 23.509179 21.714319 -4.509405 43.593699 8.998135 -13.573498 1.421980 -0.857149 0.000467 13.718601 -3.244452 87.800269 1.319418 4.059329 1.259690 0.998856 -1.714708 -0.253050 4.313591 0.043912 1.847346 -8.934382 -4.917479 -90.515359 -0.264687 19.363870 1.894172 0.005396 2.136199 0.334025 -19.253250 11.637485 -2.360671 -5.828100 2.660246 0.531865 -6.045518 -6.772714 1.148448 0.006564 -0.021343 0.018165 -17.462431 10.213459 -3.106134 -1.448251 1.507888 0.211392 -4.209549 -5.020282 1.923342 -0.000397 0.003422 0.002013
14.108532 89.134004 -10.547418 145.058225 -6.225181 -0.046612 -1.874786 3.012118 -0.300853 -1.072459 1.723937 -0.153834 -1.341449 2.154448 -0.197358 -1.072459 1.723937 -0.153834 23.508215 21.724867 -4.496664 43.587190 9.011758 -13.547888 1.416502 -0.833506 0.007343 13.703055 -3.247175 87.821806 1.253355 4.009284 1.227952 0.994362 -1.718199 -0.244380 4.318436 0.046731 1.844022 -8.929451 -4.910837 -90.517037 -0.310772 19.375052 1.871953 -0.004952 2.126743 0.347687 -19.262229 11.636674 -2.367204 -5.820387 2.666533 0.527932 -6.056667 -6.777667 1.164488 0.005174 -0.022651 0.017211 -17.452873 10.238034 -3.107418 -1.456685 1.459755 0.206074 -4.222526 -4.999132 1.934845 -0.002565 0.004299 0.004483
14.106637 89.132782 -10.573093 145.078531 -6.221026 -0.055611 -1.879705 3.002027 -0.299487 -1.075411 1.717799 -0.151408 -1.345125 2.146781 -0.194320 -1.075411 1.717799 -0.151408 23.505975 21.734046 -4.483259 43.578482 9.022329 -13.521374 1.409247 -0.805430 0.019962 13.680745 -3.252068 87.842551 1.182920 3.957493 1.194967 0.995202 -1.721668 -0.239067 4.321916 0.050843 1.841942 -8.921623 -4.902870 -90.514291 -0.370657 19.384517 1.839277 -0.014981 2.120003 0.354104 -19.255302 11.643020 -2.368262 -5.817925 2.673699 0.521627 -6.075154 -6.783356 1.184717 0.004540 -0.024485 0.015817 -17.441288 10.271689 -3.106768 -1.466730 1.408003 0.200389 -4.234903 -4.976782 1.948338 -0.004139 0.004917 0.006340
14.104555 89.131490 -10.601597 145.098818 -6.218137 -0.068619 -1.882636 2.990852 -0.296988 -1.077289 1.711460 -0.148178 -1.347453 2.138866 -0.190273 -1.077289 1.711460 -0.148178 23.503144 21.741364 -4.468422 43.568714 9.028875 -13.492885 1.402960 -0.771416 0.036544 13.648453 -3.255349 87.859242 1.116373 3.910145 1.165952 0.997966 -1.724243 -0.238127 4.326295 0.061966 1.840278 -8.909711 -4.898242 -90.506121 -0.446269 19.395346 1.794920 -0.024167 2.116069 0.353930 -19.237296 11.653613 -2.365517 -5.818886 2.679469 0.515860 -6.099030 -6.787725 1.207692 0.004286 -0.027236 0.013617 -17.429863 10.308213 -3.104188 -1.475387 1.357099 0.194792 -4.248194 -4.955069 1.963630 -0.005132 0.005536 0.007486
14.100188 89.130076 -10.632940 145.119430 -6.213785 -0.072081 -1.882047 2.977613 -0.303837 -1.078386 1.704203 -0.144639 -1.348804 2.129804 -0.185832 -1.078386 1.704203 -0.144639 23.499249 21.746847 -4.452545 43.557118 9.031455 -13.463019 1.395283 -0.733378 0.054796 13.613784 -3.252252 87.872227 1.057089 3.867639 1.141881 1.003767 -1.728816 -0.239966 4.328804 0.078813 1.836678 -8.894760 -4.896434 -90.495216 -0.533581 19.410193 1.743528 -0.031790 2.113847 0.349969 -19.219755 11.662458 -2.374876 -5.818291 2.683983 0.510870 -6.125114 -6.783847 1.234304 0.005425 -0.038772 0.011664 -17.421090 10.338652 -3.111423 -1.483093 1.311135 0.190282 -4.261233 -4.951764 1.978868 -0.006380 0.022026 0.008260
14.095551 89.128489 -10.664628 145.147428 -6.205997 -0.081753 -1.883480 2.962428 -0.301704 -1.079362 1.695717 -0.141381 -1.350004 2.119206 -0.181738 -1.079362 1.695717 -0.141381 23.493716 21.751044 -4.437380 43.542965 9.031554 -13.434548 1.386657 -0.691274 0.072415 13.581045 -3.245880 87.884819 1.001328 3.828718 1.118657 1.011450 -1.736331 -0.242394 4.329953 0.097723 1.830886 -8.880280 -4.895521 -90.486053 -0.626485 19.428104 1.690151 -0.036619 2.110523 0.347008 -19.211163 11.667586 -2.377515 -5.812904 2.689959 0.504249 -6.150333 -6.787840 1.260551 0.005342 -0.041922 0.010517 -17.419118 10.366950 -3.114522 -1.492211 1.263631 0.186435 -4.273745 -4.932192 1.994580 -0.006395 0.024834 0.009542
14.089946 89.126765 -10.697363 145.179461 -6.198028 -0.088189 -1.885506 2.946369 -0.299202 -1.080425 1.686730 -0.138482 -1.351315 2.107980 -0.178092 -1.080425 1.686730 -0.138482 23.486015 21.755317 -4.424615 43.525449 9.032082 -13.409878 1.379700 -0.645500 0.087161 13.552908 -3.239854 87.900785 0.946574 3.787926 1.093015 1.015627 -1.739097 -0.242791 4.331383 0.118499 1.825039 -8.871875 -4.895877 -90.480355 -0.722255 19.442737 1.637665 -0.042212 2.104814 0.345065 -19.211646 11.670620 -2.384391 -5.804955 2.697893 0.494807 -6.172612 -6.794950 1.287529 0.004999 -0.043560 0.011004 -17.423911 10.394894 -3.122470 -1.501559 1.213047 0.183652 -4.285981 -4.910757 2.009786 -0.005637 0.027810 0.010955
14.084079 89.124950 -10.730925 145.214705 -6.192522 -0.092630 -1.887786 2.930933 -0.296194 -1.081750 1.678014 -0.135979 -1.352955 2.097093 -0.174943 -1.081750 1.678014 -0.135979 23.475781 21.761232 -4.415490 43.503922 9.036198 -13.390600 1.376208 -0.599693 0.100412 13.528197 -3.232030 87.921949 0.894977 3.742975 1.064625 1.012359 -1.734945 -0.238960 4.334641 0.141587 1.820583 -8.869095 -4.897783 -90.476626 -0.821516 19.454456 1.584986 -0.052200 2.097536 0.345439 -19.221396 11.675242 -2.395563 -5.798204 2.706571 0.485279 -6.190966 -6.804337 1.313915 0.005323 -0.044447 0.012175 -17.435838 10.423289 -3.134642 -1.509103 1.164385 0.181205 -4.297360 -4.890014 2.025235 -0.004234 0.030448 0.012273
14.077968 89.123059 -10.765048 145.255572 -6.188970 -0.094027 -1.892760 2.916050 -0.293766 -1.084812 1.669502 -0.134457 -1.356771 2.086456 -0.173029 -1.084812 1.669502 -0.134457 23.463876 21.769720 -4.410453 43.479874 9.045974 -13.377328 1.377084 -0.555476 0.114879 13.501292 -3.220739 87.946235 0.849047 3.701340 1.036877 1.001585 -1.728405 -0.229375 4.344658 0.167176 1.817013 -8.866861 -4.902002 -90.472007 -0.923956 19.468143 1.531048 -0.065074 2.091778 0.351664 -19.241421 11.682423 -2.412756 -5.795810 2.712811 0.478933 -6.206490 -6.814851 1.338621 0.006954 -0.044508 0.013286 -17.458098 10.448964 -3.151028 -1.516911 1.121302 0.176680 -4.305250 -4.870493 2.042563 -0.002924 0.032135 0.013140
14.071577 89.121091 -10.798928 145.300041 -6.183757 -0.093175 -1.900760 2.900043 -0.291926 -1.089500 1.660402 -0.133756 -1.362624 2.075081 -0.172147 -1.089500 1.660402 -0.133756 23.451600 21.780672 -4.408523 43.455441 9.061215 -13.368598 1.379360 -0.511658 0.129242 13.472996 -3.207719 87.973167 0.809074 3.664777 1.010747 0.985600 -1.719299 -0.214254 4.359917 0.194878 1.812603 -8.860547 -4.907674 -90.463515 -1.029013 19.486522 1.476382 -0.077132 2.085851 0.364246 -19.269393 11.688963 -2.433938 -5.796569 2.715854 0.475843 -6.217647 -6.825077 1.361030 0.009139 -0.044160 0.014629 -17.488922 10.469549 -3.168365 -1.524491 1.081676 0.168751 -4.310556 -4.851538 2.061516 -0.001672 0.033473 0.013886
